<svg xmlns="http://www.w3.org/2000/svg" width="13.846" height="15" viewBox="0 0 13.846 15"><defs><style>.a{opacity:0.618;}.b{fill:#fff;}</style></defs><g class="a" transform="translate(-18.275)"><g transform="translate(18.275)"><path class="b" d="M202.152,8.077a1.17,1.17,0,0,0,1.154-1.154V1.154a1.108,1.108,0,0,0-.343-.811,1.132,1.132,0,0,0-1.623,0,1.109,1.109,0,0,0-.343.811V6.923a1.17,1.17,0,0,0,1.154,1.154Z" transform="translate(-195.229)"/><path class="b" d="M31.4,75.976a6.791,6.791,0,0,0-2.042-2.434,1.119,1.119,0,0,0-.856-.225,1.069,1.069,0,0,0-.757.451,1.1,1.1,0,0,0-.221.852,1.122,1.122,0,0,0,.446.762,4.6,4.6,0,0,1,1.366,1.632,4.6,4.6,0,0,1,.117,3.845,4.571,4.571,0,0,1-2.461,2.461,4.565,4.565,0,0,1-3.579,0,4.57,4.57,0,0,1-2.461-2.461,4.6,4.6,0,0,1,.117-3.845,4.6,4.6,0,0,1,1.366-1.632,1.123,1.123,0,0,0,.446-.762,1.1,1.1,0,0,0-.221-.852,1.065,1.065,0,0,0-.753-.451,1.14,1.14,0,0,0-.861.225,6.882,6.882,0,0,0-2.218,8.212,6.839,6.839,0,0,0,3.687,3.687,6.833,6.833,0,0,0,5.373,0,6.837,6.837,0,0,0,3.687-3.687,6.736,6.736,0,0,0,.55-2.686A6.819,6.819,0,0,0,31.4,75.976Z" transform="translate(-18.275 -70.991)"/></g></g></svg>