<svg xmlns="http://www.w3.org/2000/svg" width="14.475" height="14.475" viewBox="0 0 14.475 14.475"><defs><style>.a{opacity:0.47;}</style></defs><g class="a"><g transform="translate(0)"><path d="M7.238,0a7.237,7.237,0,1,0,7.237,7.237A7.237,7.237,0,0,0,7.238,0Zm.5,8.122a.488.488,0,0,1-.006.057c0,.014,0,.029-.006.043s-.009.029-.014.044a.512.512,0,0,1-.018.052s0,.006,0,.009a.5.5,0,0,1-.037.066l0,0A.5.5,0,0,1,7.6,8.46l-.016.015a.479.479,0,0,1-.053.044l-.017.012a.5.5,0,0,1-.075.041l-.017.006a.5.5,0,0,1-.067.021L7.327,8.6a.5.5,0,0,1-.09.009l-.019,0A.5.5,0,0,1,7.134,8.6l-.026-.008a.508.508,0,0,1-.075-.026l-.008,0L4.25,7.257a.5.5,0,0,1,.427-.905l2.061.972V3a.5.5,0,1,1,1,0v5.11h0S7.738,8.119,7.738,8.122Z" transform="translate(-0.001 0)"/></g></g></svg>