<svg xmlns="http://www.w3.org/2000/svg" width="24" height="24" viewBox="0 0 24 24"><defs><style>.a{opacity:0.6;}.b{fill:none;}</style></defs><g class="a"><path class="b" d="M0,0H24V24H0Z"/><path d="M22,3H2A2.006,2.006,0,0,0,0,5V19a2.006,2.006,0,0,0,2,2H22a2,2,0,0,0,1.99-2L24,5A2.006,2.006,0,0,0,22,3Zm0,16H2V5H22ZM21,6H14v5h7ZM20,8,17.5,9.75,15,8V7l2.5,1.75L20,7ZM9,12A3,3,0,1,0,6,9,3.009,3.009,0,0,0,9,12ZM9,8A1,1,0,1,1,8,9,1,1,0,0,1,9,8Zm6,8.59c0-2.5-3.97-3.58-6-3.58s-6,1.08-6,3.58V18H15ZM5.48,16A7.113,7.113,0,0,1,9,15a7.042,7.042,0,0,1,3.52,1Z"/></g></svg>