<svg xmlns="http://www.w3.org/2000/svg" width="19.41" height="19.41" viewBox="0 0 19.41 19.41"><defs><style>.a{opacity:0.3;}.b{fill:none;}</style></defs><g class="a"><path class="b" d="M0,0H19.41V19.41H0Z"/><path d="M9.9,6.118a7.9,7.9,0,0,1,7.133,4.448,7.944,7.944,0,0,1-14.266,0A7.9,7.9,0,0,1,9.9,6.118M9.9,4.5A9.565,9.565,0,0,0,1,10.566a9.557,9.557,0,0,0,17.793,0A9.565,9.565,0,0,0,9.9,4.5Zm0,4.044a2.022,2.022,0,1,1-2.022,2.022A2.023,2.023,0,0,1,9.9,8.544m0-1.618a3.639,3.639,0,1,0,3.639,3.639A3.645,3.645,0,0,0,9.9,6.926Z" transform="translate(-0.191 -2.861)"/></g></svg>