<svg xmlns="http://www.w3.org/2000/svg" width="20.937" height="20.938" viewBox="0 0 20.937 20.938"><defs><style>.a{fill:#acacac;}</style></defs><g transform="translate(0 0.001)"><g transform="translate(9.421 14.656)"><rect class="a" width="2.094" height="2.094"/></g><path class="a" d="M10.468,0A10.468,10.468,0,1,0,20.937,10.468,10.468,10.468,0,0,0,10.468,0Zm0,19.042a8.574,8.574,0,1,1,8.574-8.574A8.574,8.574,0,0,1,10.468,19.042Z"/><g transform="translate(6.281 4.167)"><path class="a" d="M136.259,88.131a4.187,4.187,0,0,0-8.259.995h2.094a2.1,2.1,0,0,1,4.187.356,2.177,2.177,0,0,1-2.209,1.738.932.932,0,0,0-.932.932h0V94.36h2.094V93.166A4.187,4.187,0,0,0,136.259,88.131Z" transform="translate(-127.999 -84.918)"/></g></g></svg>