
<svg width="18px" height="18px" viewBox="0 0 18 18" version="1.1" xmlns="http://www.w3.org/2000/svg" xmlns:xlink="http://www.w3.org/1999/xlink">
    <defs>
        <linearGradient x1="87.392885%" y1="4.93146342%" x2="36.0093572%" y2="87.724489%" id="linearGradient-1">
            <stop stop-color="#E27F20" offset="0%"></stop>
            <stop stop-color="#935293" offset="100%"></stop>
        </linearGradient>
    </defs>
    <g id="Page-1" stroke="none" stroke-width="1" fill="none" fill-rule="evenodd">
        <g id="Trafonline.pl-_-design_concept-[inner-2]" transform="translate(-637.000000, -713.000000)" fill="url(#linearGradient-1)" fill-rule="nonzero">
            <g id="Group-3-Copy-2" transform="translate(322.000000, 710.000000)">
                <g id="outline-list_alt-24px" transform="translate(324.000000, 12.000000) scale(-1, 1) translate(-324.000000, -12.000000) translate(315.000000, 3.000000)">
                    <path d="M8,4 L14,4 L14,6 L8,6 L8,4 Z M8,8 L14,8 L14,10 L8,10 L8,8 Z M8,12 L14,12 L14,14 L8,14 L8,12 Z M4,4 L6,4 L6,6 L4,6 L4,4 Z M4,8 L6,8 L6,10 L4,10 L4,8 Z M4,12 L6,12 L6,14 L4,14 L4,12 Z M0.9,0 C0.4,0 0,0.4 0,0.9 L0,17.1 C0,17.5 0.4,18 0.9,18 L17.1,18 C17.5,18 18,17.5 18,17.1 L18,0.9 C18,0.4 17.5,0 17.1,0 L0.9,0 Z M16,16 L2,16 L2,2 L16,2 L16,16 Z" id="Shape"></path>
                </g>
            </g>
        </g>
    </g>
</svg>