<svg xmlns="http://www.w3.org/2000/svg" width="8.47" height="8.47" viewBox="0 0 8.47 8.47"><defs><style>.a{fill:#623C62;}</style></defs><path class="a" d="M7.123.051a.175.175,0,0,0-.247,0L4.358,2.569a.175.175,0,0,1-.247,0L1.593.051a.175.175,0,0,0-.247,0l-1.3,1.3a.175.175,0,0,0,0,.247L2.569,4.111a.175.175,0,0,1,0,.247L.051,6.876a.175.175,0,0,0,0,.247l1.3,1.3a.175.175,0,0,0,.247,0L4.111,5.9a.175.175,0,0,1,.247,0L6.876,8.419a.175.175,0,0,0,.247,0l1.3-1.3a.175.175,0,0,0,0-.247L5.9,4.358a.175.175,0,0,1,0-.247L8.419,1.593a.175.175,0,0,0,0-.247Z"/></svg>