<svg xmlns="http://www.w3.org/2000/svg" width="101.161" height="65.917" viewBox="0 0 101.161 65.917"><defs><style>.a{opacity:0.742;}</style></defs><path class="a" d="M440.27,219.061a19.968,19.968,0,0,0-1.492-1.542,9.442,9.442,0,0,0-1.309-.964s.488-.269.488-.643a1.643,1.643,0,0,1,.128-.643,10.835,10.835,0,0,0,1.093.386,8.42,8.42,0,0,0,1.093.193,12.512,12.512,0,0,1-.193,1.515,4.874,4.874,0,0,0,.193,1.7m-21.843,35.978s-2.7-1.8-3.006-2.054-.463-.9-.463-2.251a37.28,37.28,0,0,1,.322-3.727s.45.809.708,1.286.384.834.963,2.12a46.712,46.712,0,0,1,1.478,4.627m58.9-26.662c0-.476.335-1.093,0-1.414s-.438-.13-.564-.423a13.674,13.674,0,0,0-1.479-2.083,2.99,2.99,0,0,0-.836-.578,1.228,1.228,0,0,0-.063-.81.257.257,0,0,0-.45-.077,6.28,6.28,0,0,1-.706-.849,49.357,49.357,0,0,1-2.635-4.176c-.128-.4-.9-.963-1.221-1.156s-1.734-1.606-1.734-1.606a.768.768,0,0,0-.257-.643.583.583,0,0,0-.694-.128s-.719-.693-1.156-1.028a5.366,5.366,0,0,1-1.492-1.221c-.333-.553-.513-1.22-.668-.681s.155,1.837,0,1.709-1.388-.9-1.965-1.285-.886-.9-.963-.5a4.376,4.376,0,0,0,.513,1.979,9.619,9.619,0,0,0,1.335,1.49,3.017,3.017,0,0,0-.693-.142,10.205,10.205,0,0,1-2.161-.321,9.316,9.316,0,0,0-2.311-.193s.488.128.873.258,1.672.475,1.672.475a3.568,3.568,0,0,1-.964,0c-.45-.077-1.864-.411-3.084-.539a11.449,11.449,0,0,0-2.828.193,2.7,2.7,0,0,0,.939.193,5.315,5.315,0,0,1,1.567.578,4.454,4.454,0,0,1-1.412-.129,5.546,5.546,0,0,0-1.735-.063h.706a.764.764,0,0,1,.719.578,6.182,6.182,0,0,0-2-.257,6.872,6.872,0,0,0-2.467,1.028,2.047,2.047,0,0,0,.668.065,2.708,2.708,0,0,1,1.093.32s-.758.066-1.349.066a2.558,2.558,0,0,0-1.284.577,2.32,2.32,0,0,0,.8.13,2.239,2.239,0,0,1,.938.256,12.824,12.824,0,0,1-1.606,0,7.551,7.551,0,0,0-1.644.193,4.289,4.289,0,0,1,1,.128c.45.128,1.311.449,1.311.449a11.154,11.154,0,0,1-1.634-.141,3.764,3.764,0,0,0-2.184.205,9.562,9.562,0,0,0-1.605.951c-.385.231-.283-1.529-.36-2.39a4.227,4.227,0,0,1,.23-2.095,2.772,2.772,0,0,0,.193-1.734c-.128-.578.129-.45.385-.258s.836.964,1.285,1.029.708-.565.708-.565l.669-.271.488-.448s.513.513.667.255.078-.963.361-1.155.577-.193.873-.772.6-.449.6-.449h.708c.45,0-.153-.475-.153-.475s.218-1.9.218-3.059-1.3-2.376-1.992-2.8-1.221-.348-2.931.077-2.529,2.788-2.851,2.981.257.564.257.564l-.074.52c-.338-.019-1.763-.272-2.239-.378-.578-.128-1.478-.642-2.891-.964a20.042,20.042,0,0,0-6.36.386,15.731,15.731,0,0,0-4.419,2.184,3.024,3.024,0,0,1-.527-.063c-.321-.065-.553.9-.835,1.157a9.629,9.629,0,0,0-1.349,2.505,4.064,4.064,0,0,0,.77,3.675c1.029,1,3.47,1.464,5.141,2.235s4.624,1.735,4.624,1.735-.13.193-.386.514-1.221,1.373-1.221,1.373a25.866,25.866,0,0,1-5.4.36,10.314,10.314,0,0,1-3.727-1.864c-.513-.346-.642.425-.642.425a12.732,12.732,0,0,0-2.505-.809c-.578,0-.386,1.54-.386,1.54s-.866-.289-1.928-.674a20.02,20.02,0,0,0-8.094-.866,13.1,13.1,0,0,0-7.132,2.7,3.605,3.605,0,0,1-.924,0,40.405,40.405,0,0,1-4.439.691c-3.085.192-5.413,3.891-7.662,4.6-1.458.921-2.555,2.785-14.054,4.307a7.925,7.925,0,0,0,4.9.374c1.648-.34,5.739-1.658,2.172.1a5.561,5.561,0,0,1-4.6.578c.943,1.911,4.966,1.475,5.569,1.415a17.451,17.451,0,0,0,3.738-1.235,17.064,17.064,0,0,0,2.879-1.528,2.826,2.826,0,0,1-.77.963,13.779,13.779,0,0,1-3.471,1.568,1.339,1.339,0,0,0-1.027,1.259s.231-.256.514-.513,1.092-.193,1.734-.193a9.71,9.71,0,0,0,3.406-.707,7.981,7.981,0,0,0,2.054-1.541,3.5,3.5,0,0,0-.539,1.349,6.729,6.729,0,0,1-.488,1.67,23.151,23.151,0,0,0,1.349-2.249,5.069,5.069,0,0,1,1.992-1.671s-.463.579-.9,1.094a7.481,7.481,0,0,0-.874,1.8,5.108,5.108,0,0,1,1.389-1.735,10.965,10.965,0,0,0,2.5-2.633c.708-1.029.545-3.389,1.008-4.289s2.044-.888,2.044-.888-.579.7-1.093,1.235a8.485,8.485,0,0,0-1.414,4.342,9.646,9.646,0,0,0,3.791,7.838c3.47,2.7,5.847,4.947,7,6.785s1.235,4.973,1.235,5.782-.463,1.762-.143,2.469a3.014,3.014,0,0,0,1.529,1.349c.629.348,3.855,1.028,5.011,1.542s2.776,1.349,2.776,1.349a28.824,28.824,0,0,1,2.376,2.39,26.3,26.3,0,0,0,3.212,3.072c.349.192.13.551.578.9a7.085,7.085,0,0,0,1.864.734.861.861,0,0,1,.386,1.234c-.3.3.218.668.218.668l.3,1.221a9.831,9.831,0,0,0,2.441.771c.9.064,2.184.064,2.184.064a8.14,8.14,0,0,0-.065-.963c-.063-.475-.964-1.285-.964-1.607s-.578-.9-.9-1.156-1.283-1.233-1.283-1.233-.193-1.465-.322-1.98-.9-.9-.9-.9a1.715,1.715,0,0,0-.565-1.156,11.648,11.648,0,0,1-2.081-1.67,2.182,2.182,0,0,0-1.311-.964,7.229,7.229,0,0,1-1.824-1.22,25.675,25.675,0,0,0-.565-3.148,2.956,2.956,0,0,1-.078-1.839c.128-1,0-4.2,0-5.23a19.565,19.565,0,0,0-.849-3.662s2.159.875,3.676,1.606,3.855,1.659,3.855,1.659a.647.647,0,0,0,.333.4,2.143,2.143,0,0,0,.951.193,19.967,19.967,0,0,1,2.518.836.565.565,0,0,0,.629-.27s1.092.2,1.684.333,1.592,0,2.106.322a19.563,19.563,0,0,0,2.6,1.991c.733.257,1.156,1.285,3.058,2.251a20.156,20.156,0,0,1,3.661,2.441c.513.4.064,1.028-.578,1.478s-2.956,1.157-3.406,1.439a9.373,9.373,0,0,1-2.506.682c-.32,0-.384.475-.384.475a1.006,1.006,0,0,1-.771-.6c-.193-.526-.644-1.477-.964-1.477s-1.8.128-2.813.128-1.684-.065-1.684.258,1.22,1.349,1.542,1.849a4.155,4.155,0,0,0,1.99,1.556c.694.127,2.25.757,3.008.963a2.484,2.484,0,0,0,2-.513c.643-.385,5.525-2.7,6.014-3.02s1.079-.141,1.439-.449a3.482,3.482,0,0,0,.643-1.864,5.688,5.688,0,0,0,.154-1.734,22.589,22.589,0,0,0-1.761-2.443c-.526-.834-1.991-2.981-1.991-2.981a26.064,26.064,0,0,0,3.6,1.5,47.825,47.825,0,0,0,5.859,1.221c.656,0,.5.127,1.157.591a10.273,10.273,0,0,1,3.071,3.263c.526,1.286,1.669,4.691,1.8,5.334a1.847,1.847,0,0,0,.578,1.155,2.5,2.5,0,0,1,.45.964,2.907,2.907,0,0,1-.656.578c-.27.128-.693.27-.693.707a10.323,10.323,0,0,0,2.313,3.111c.539.346,1.028.552,1.156.077a13.71,13.71,0,0,0,.192-2.993c-.062-.836-.383-1.222-.256-1.993a6.007,6.007,0,0,0-.708-3.033,48.354,48.354,0,0,1-2.08-4.779c-.349-1.079-.3-2.237-.488-2.854a9.72,9.72,0,0,0-1.671-2.185,9.077,9.077,0,0,0-2.505-1.477,21.316,21.316,0,0,1-3.211-1.992c-.9-.771-3.214-2.25-3.214-2.25s1.3-2.57,1.8-3.532,1.734-5.6,2.441-7.2,2.249-2.7,2.993-3.727a22.258,22.258,0,0,1,2.236-2.57,1.879,1.879,0,0,1,1-.438l.835-.076a3.083,3.083,0,0,1,1.478.308A11.415,11.415,0,0,0,467,227.926a2.949,2.949,0,0,1,1.542.579,1.911,1.911,0,0,0,.468.724,1.213,1.213,0,0,0,.817.047s.333.128.771.321a3.9,3.9,0,0,0,.8.257l.155.513.4.258a1.5,1.5,0,0,1,.191.322,3.715,3.715,0,0,0,1.285.834c.322.13.771-.321,1.094-.771s.642-.128.642-.128,1.414-.32,1.734-.873a3.3,3.3,0,0,0,.438-1.632" transform="translate(-376.315 -204.285)"/></svg>