<svg xmlns="http://www.w3.org/2000/svg" width="16.24" height="16.24" viewBox="0 0 16.24 16.24"><defs><style>.a{fill:#9d1030;}</style></defs><path class="a" d="M8.12,0a8.12,8.12,0,1,0,8.12,8.12A8.129,8.129,0,0,0,8.12,0Zm0,14.848A6.728,6.728,0,1,1,14.848,8.12,6.736,6.736,0,0,1,8.12,14.848Z"/><path class="a" d="M57.709,51.43a.7.7,0,0,0-.984,0l-2.158,2.158L52.409,51.43a.7.7,0,0,0-.984.984l2.158,2.158L51.425,56.73a.7.7,0,1,0,.984.984l2.158-2.158,2.158,2.158a.7.7,0,0,0,.984-.984l-2.158-2.158,2.158-2.158A.7.7,0,0,0,57.709,51.43Z" transform="translate(-46.447 -46.452)"/></svg>