<svg xmlns="http://www.w3.org/2000/svg" width="94.118" height="60.584" viewBox="0 0 94.118 60.584"><defs><style>.a{fill:#2d2a29;}.b{fill:#f18d1f;}.c{fill:#e68e27;}.d{fill:#e27f20;}.e{fill:#6e4a97;}.f{fill:#a06ea5;}.g{fill:#935293;}</style></defs><g transform="translate(-499 -82)"><path class="a" d="M146.189,136.115l-2.783,13.847h-3.29l2.8-13.847H139l.574-2.905h11.064l-.574,2.905Z" transform="translate(402.315 -7.384)"/><path class="a" d="M172.22,149.962h-3.29l3.36-16.752h5.95a5.155,5.155,0,0,1,3.4.963,4.021,4.021,0,0,1,1.138,3.238,6.556,6.556,0,0,1-1.019,3.686,5.4,5.4,0,0,1-2.8,2.17l1.68,6.7H177.18l-1.369-6.36H173.5Zm4.967-9.125a1.774,1.774,0,0,0,1.285-.431,2.639,2.639,0,0,0,.634-1.4c.1-.462.165-.809.207-1.05a3.7,3.7,0,0,0,.06-.585,1.376,1.376,0,0,0-.277-.931,1.3,1.3,0,0,0-1-.312H175l-.959,4.708Z" transform="translate(382.862 -7.384)"/><path class="a" d="M216.321,149.962l-.238-4.127h-4.7l-1.778,4.127h-3.5l7.921-16.752h4.365l1.3,16.752Zm-.574-10.823-.025-3.049h-.35l-1.05,3.049-1.607,4.032h3.238Z" transform="translate(358.702 -7.384)"/><path class="a" d="M250.18,149.962l3.36-16.752h9.528l-.578,2.905h-6.237l-.795,3.913h5.474l-.578,2.909h-5.471l-1.418,7.032Z" transform="translate(330.051 -7.384)"/><path class="b" d="M106.88,89.59l1.883,3.059a18.125,18.125,0,0,0,2.923-.231c.154-.025.3-.039.455-.056A9.307,9.307,0,0,1,106.88,89.59Z" transform="translate(423.193 20.968)"/><path class="c" d="M72.073,17.065A17.672,17.672,0,0,1,77,16.341L70.1,8a51.282,51.282,0,0,1,.7,8.341,17.7,17.7,0,0,0-4.946.725c-18.232,5.3-18.47,31.152-.455,37.154l13.185,4.393L76.977,56,71.621,54.22C53.606,48.214,53.841,22.368,72.073,17.065Z" transform="translate(458.843 74)"/><path class="c" d="M144.9,99.538c-1.495-.879-5.334-2.8-9.517-2.128-.567.088-1.1.147-1.621.186a17.473,17.473,0,0,1,4.918,1.943,5.475,5.475,0,0,1,1.1.851l1.4,1.4a4.389,4.389,0,0,0,6.2,0h0l-1.4-1.4a5.38,5.38,0,0,0-1.078-.851Z" transform="translate(405.721 15.976)"/><path class="d" d="M88.554,31.83a17.672,17.672,0,0,0-4.928.725c-18.232,5.3-18.467,31.152-.455,37.154l5.359,1.785L76.562,52.047s2.4,3.035,8.1,3.059l-1.883-3.059a9.3,9.3,0,0,0,5.25,2.772,12.632,12.632,0,0,1,4.148.242c.518-.039,1.05-.1,1.621-.186A15.085,15.085,0,0,1,103.318,57a5.38,5.38,0,0,1,1.1.851l1.4,1.4,2.968-2.968Z" transform="translate(447.291 58.511)"/><path class="e" d="M89.92,89.59l1.88,3.059a18.165,18.165,0,0,0,2.926-.231c.154-.024.3-.038.455-.056A9.307,9.307,0,0,1,89.92,89.59Z" transform="translate(434.217 20.968)"/><path class="f" d="M55.112,17.065a17.672,17.672,0,0,1,4.928-.725L53.138,8a51.28,51.28,0,0,1,.7,8.341,17.7,17.7,0,0,0-4.946.725c-18.232,5.3-18.47,31.152-.459,37.154l13.185,4.393L60.012,56,54.647,54.22C36.642,48.214,36.88,22.368,55.112,17.065Z" transform="translate(469.868 74)"/><path class="f" d="M127.931,99.538c-1.495-.879-5.334-2.8-9.52-2.128-.564.088-1.1.147-1.621.186a17.5,17.5,0,0,1,4.921,1.943,5.355,5.355,0,0,1,1.092.851l1.4,1.4a4.389,4.389,0,0,0,6.2,0h0l-1.4-1.4a5.355,5.355,0,0,0-1.075-.851Z" transform="translate(416.752 15.976)"/><path class="g" d="M71.591,31.83a17.672,17.672,0,0,0-4.928.725c-18.232,5.3-18.47,31.152-.455,37.154l5.355,1.785L59.6,52.047s2.4,3.035,8.1,3.059l-1.88-3.059a9.3,9.3,0,0,0,5.25,2.772,12.6,12.6,0,0,1,4.144.242c.518-.039,1.05-.1,1.621-.186A15.1,15.1,0,0,1,86.355,57a5.356,5.356,0,0,1,1.092.851l1.4,1.4,2.968-2.968Z" transform="translate(458.317 58.511)"/><path class="a" d="M73,89.59l1.883,3.059a18.2,18.2,0,0,0,2.926-.231c.151-.025.3-.039.452-.056A9.22,9.22,0,0,1,73,89.59Z" transform="translate(445.214 20.968)"/><path d="M38.145,17.065a17.672,17.672,0,0,1,4.928-.725L36.171,8a51.281,51.281,0,0,1,.7,8.341,17.7,17.7,0,0,0-4.946.725c-18.232,5.3-18.467,31.152-.455,37.154l13.2,4.393L43.063,56,37.7,54.22C19.678,48.214,19.913,22.368,38.145,17.065Z" transform="translate(480.895 74)"/><path d="M110.968,99.538c-1.495-.879-5.334-2.8-9.517-2.128-.567.088-1.1.147-1.621.186a17.473,17.473,0,0,1,4.9,1.943,5.474,5.474,0,0,1,1.1.851l1.4,1.4a4.393,4.393,0,0,0,6.206,0h0l-1.4-1.4A5.38,5.38,0,0,0,110.968,99.538Z" transform="translate(427.775 15.976)"/><path class="a" d="M54.624,31.83a17.672,17.672,0,0,0-4.928.725c-18.232,5.3-18.467,31.152-.455,37.154L54.6,71.494,42.632,52.047s2.387,3.035,8.1,3.059L48.87,52.047a9.3,9.3,0,0,0,5.25,2.772,12.632,12.632,0,0,1,4.148.242c.518-.039,1.05-.1,1.621-.186A15.085,15.085,0,0,1,69.405,57a5.38,5.38,0,0,1,1.1.851l1.4,1.4,2.968-2.968Z" transform="translate(469.345 58.511)"/></g></svg>