<svg xmlns="http://www.w3.org/2000/svg" width="13.2" height="12" viewBox="0 0 13.2 12"><defs><style>.a{fill:#a86626;}</style></defs><g transform="translate(0 -25.5)"><g transform="translate(0 25.5)"><path class="a" d="M0,37.5H2.4V30.3H0Zm13.2-6.6A1.2,1.2,0,0,0,12,29.7H8.22l.6-2.76v-.18a1.258,1.258,0,0,0-.24-.66l-.66-.6L3.96,29.46a1.007,1.007,0,0,0-.36.84v6a1.2,1.2,0,0,0,1.2,1.2h5.4a1.185,1.185,0,0,0,1.08-.72l1.8-4.26a1.021,1.021,0,0,0,.06-.42V30.9h.06Z" transform="translate(0 -25.5)"/></g></g></svg>