<svg xmlns="http://www.w3.org/2000/svg" width="14.35" height="16.352" viewBox="0 0 14.35 16.352"><defs><style>.a{opacity:0.537;}</style></defs><g class="a" transform="translate(0 0)"><g transform="translate(0)"><path d="M19.72,1.465h2.341a.412.412,0,0,0,.41-.411V.411A.412.412,0,0,0,22.061,0H19.72a.412.412,0,0,0-.411.411v.644A.412.412,0,0,0,19.72,1.465Z" transform="translate(-13.695)"/><path d="M10.1,5.837a7.152,7.152,0,0,0-5.085,2.12L6.57,9.083a5.245,5.245,0,1,1-.517.53L4.882,8.1A7.165,7.165,0,1,0,10.1,5.837Z" transform="translate(-2.921 -3.838)"/><path d="M15.64,19.647a1.132,1.132,0,0,1-.891-.439l0,0-2.593-3.353a4.3,4.3,0,1,0,.708-.742l3.363,2.428,0,0a1.13,1.13,0,0,1-.582,2.1Z" transform="translate(-8.411 -9.292)"/></g></g></svg>